<mxfile host="app.diagrams.net" modified="2023-07-10T17:50:49.211Z" agent="Mozilla/5.0 (Windows NT 10.0; Win64; x64) AppleWebKit/537.36 (KHTML, like Gecko) Chrome/114.0.0.0 Safari/537.36" etag="nyxrBOQeXCqZSgqrO9Tz" version="21.6.1" type="device">
  <diagram name="Page-1" id="qsPS1X4vmrkZpDlswCdb">
    <mxGraphModel dx="1322" dy="450" grid="1" gridSize="10" guides="1" tooltips="1" connect="1" arrows="1" fold="1" page="1" pageScale="1" pageWidth="850" pageHeight="1100" math="0" shadow="0">
      <root>
        <mxCell id="0" />
        <mxCell id="1" parent="0" />
        <mxCell id="p2bwg93GuQDVotKXZ_6U-1" value="&lt;span style=&quot;font-size: 24px;&quot;&gt;a&lt;/span&gt;" style="ellipse;whiteSpace=wrap;html=1;" vertex="1" parent="1">
          <mxGeometry x="130" y="210" width="60" height="60" as="geometry" />
        </mxCell>
        <mxCell id="p2bwg93GuQDVotKXZ_6U-4" value="&lt;font style=&quot;font-size: 24px;&quot;&gt;b&lt;/font&gt;" style="ellipse;whiteSpace=wrap;html=1;" vertex="1" parent="1">
          <mxGeometry x="250" y="210" width="60" height="60" as="geometry" />
        </mxCell>
        <mxCell id="p2bwg93GuQDVotKXZ_6U-5" value="&lt;font style=&quot;font-size: 24px;&quot;&gt;c&lt;/font&gt;" style="ellipse;whiteSpace=wrap;html=1;" vertex="1" parent="1">
          <mxGeometry x="370" y="210" width="60" height="60" as="geometry" />
        </mxCell>
        <mxCell id="p2bwg93GuQDVotKXZ_6U-6" value="&lt;font style=&quot;font-size: 24px;&quot;&gt;d&lt;/font&gt;" style="ellipse;whiteSpace=wrap;html=1;" vertex="1" parent="1">
          <mxGeometry x="490" y="210" width="60" height="60" as="geometry" />
        </mxCell>
        <mxCell id="p2bwg93GuQDVotKXZ_6U-7" value="" style="endArrow=classic;html=1;rounded=0;exitX=1;exitY=0.5;exitDx=0;exitDy=0;entryX=0;entryY=0.5;entryDx=0;entryDy=0;" edge="1" parent="1" source="p2bwg93GuQDVotKXZ_6U-1" target="p2bwg93GuQDVotKXZ_6U-4">
          <mxGeometry width="50" height="50" relative="1" as="geometry">
            <mxPoint x="340" y="410" as="sourcePoint" />
            <mxPoint x="390" y="360" as="targetPoint" />
          </mxGeometry>
        </mxCell>
        <mxCell id="p2bwg93GuQDVotKXZ_6U-8" value="" style="endArrow=classic;html=1;rounded=0;exitX=1;exitY=0.5;exitDx=0;exitDy=0;entryX=-0.057;entryY=0.495;entryDx=0;entryDy=0;entryPerimeter=0;" edge="1" parent="1" source="p2bwg93GuQDVotKXZ_6U-4" target="p2bwg93GuQDVotKXZ_6U-5">
          <mxGeometry width="50" height="50" relative="1" as="geometry">
            <mxPoint x="200" y="250" as="sourcePoint" />
            <mxPoint x="260" y="250" as="targetPoint" />
          </mxGeometry>
        </mxCell>
        <mxCell id="p2bwg93GuQDVotKXZ_6U-9" value="" style="endArrow=classic;html=1;rounded=0;entryX=0;entryY=0.5;entryDx=0;entryDy=0;" edge="1" parent="1" target="p2bwg93GuQDVotKXZ_6U-6">
          <mxGeometry width="50" height="50" relative="1" as="geometry">
            <mxPoint x="430" y="240" as="sourcePoint" />
            <mxPoint x="270" y="260" as="targetPoint" />
          </mxGeometry>
        </mxCell>
        <mxCell id="p2bwg93GuQDVotKXZ_6U-10" value="" style="curved=1;endArrow=classic;html=1;rounded=0;entryX=0.5;entryY=1;entryDx=0;entryDy=0;exitX=0.5;exitY=1;exitDx=0;exitDy=0;" edge="1" parent="1" source="p2bwg93GuQDVotKXZ_6U-5" target="p2bwg93GuQDVotKXZ_6U-4">
          <mxGeometry width="50" height="50" relative="1" as="geometry">
            <mxPoint x="230" y="400" as="sourcePoint" />
            <mxPoint x="280" y="350" as="targetPoint" />
            <Array as="points">
              <mxPoint x="400" y="320" />
              <mxPoint x="340" y="320" />
              <mxPoint x="280" y="320" />
            </Array>
          </mxGeometry>
        </mxCell>
        <mxCell id="p2bwg93GuQDVotKXZ_6U-11" value="" style="curved=1;endArrow=classic;html=1;rounded=0;entryX=0.5;entryY=0;entryDx=0;entryDy=0;exitX=0.5;exitY=0;exitDx=0;exitDy=0;" edge="1" parent="1" source="p2bwg93GuQDVotKXZ_6U-6" target="p2bwg93GuQDVotKXZ_6U-4">
          <mxGeometry width="50" height="50" relative="1" as="geometry">
            <mxPoint x="410" y="280" as="sourcePoint" />
            <mxPoint x="290" y="280" as="targetPoint" />
            <Array as="points">
              <mxPoint x="520" y="160" />
              <mxPoint x="400" y="150" />
              <mxPoint x="280" y="160" />
            </Array>
          </mxGeometry>
        </mxCell>
        <mxCell id="p2bwg93GuQDVotKXZ_6U-12" value="" style="endArrow=classic;html=1;rounded=0;entryX=0;entryY=0.5;entryDx=0;entryDy=0;" edge="1" parent="1" target="p2bwg93GuQDVotKXZ_6U-1">
          <mxGeometry width="50" height="50" relative="1" as="geometry">
            <mxPoint x="80" y="240" as="sourcePoint" />
            <mxPoint x="390" y="290" as="targetPoint" />
          </mxGeometry>
        </mxCell>
        <mxCell id="p2bwg93GuQDVotKXZ_6U-13" value="" style="endArrow=classic;html=1;rounded=0;exitX=1;exitY=0.5;exitDx=0;exitDy=0;" edge="1" parent="1" source="p2bwg93GuQDVotKXZ_6U-6">
          <mxGeometry width="50" height="50" relative="1" as="geometry">
            <mxPoint x="90" y="250" as="sourcePoint" />
            <mxPoint x="600" y="240" as="targetPoint" />
          </mxGeometry>
        </mxCell>
        <mxCell id="p2bwg93GuQDVotKXZ_6U-14" value="" style="curved=1;endArrow=classic;html=1;rounded=0;entryX=0.5;entryY=1;entryDx=0;entryDy=0;exitX=0.5;exitY=1;exitDx=0;exitDy=0;" edge="1" parent="1" source="p2bwg93GuQDVotKXZ_6U-6" target="p2bwg93GuQDVotKXZ_6U-1">
          <mxGeometry width="50" height="50" relative="1" as="geometry">
            <mxPoint x="490" y="420" as="sourcePoint" />
            <mxPoint x="250" y="420" as="targetPoint" />
            <Array as="points">
              <mxPoint x="520" y="350" />
              <mxPoint x="160" y="350" />
            </Array>
          </mxGeometry>
        </mxCell>
      </root>
    </mxGraphModel>
  </diagram>
</mxfile>
